<mxfile host="Electron" agent="Mozilla/5.0 (Windows NT 10.0; Win64; x64) AppleWebKit/537.36 (KHTML, like Gecko) draw.io/27.0.5 Chrome/134.0.6998.205 Electron/35.3.0 Safari/537.36" version="27.0.5">
  <diagram name="Страница — 1" id="hzijPucF20GfOI5PmzRy">
    <mxGraphModel dx="1694" dy="1170" grid="1" gridSize="10" guides="1" tooltips="1" connect="1" arrows="1" fold="1" page="1" pageScale="1" pageWidth="827" pageHeight="1169" background="none" math="0" shadow="0">
      <root>
        <mxCell id="0" />
        <mxCell id="1" parent="0" />
        <mxCell id="JnITb27zXawuO8oeRguL-7" value="TextBlock" style="text;strokeColor=none;fillColor=none;html=1;fontSize=24;fontStyle=1;verticalAlign=middle;align=left;" parent="1" vertex="1">
          <mxGeometry x="14" y="20" width="240" height="40" as="geometry" />
        </mxCell>
        <UserObject label="&lt;font style=&quot;font-size: 14px;&quot;&gt;TextBlock объединяет объекты TextLine в блок текста.&lt;/font&gt;" placeholders="1" name="Variable" id="JnITb27zXawuO8oeRguL-8">
          <mxCell style="text;html=1;strokeColor=none;fillColor=none;align=left;verticalAlign=top;whiteSpace=wrap;overflow=hidden;" parent="1" vertex="1">
            <mxGeometry x="14" y="60" width="240" height="90" as="geometry" />
          </mxCell>
        </UserObject>
        <mxCell id="JnITb27zXawuO8oeRguL-12" value="TextBlock" style="swimlane;fontStyle=1;align=center;verticalAlign=top;childLayout=stackLayout;horizontal=1;startSize=26;horizontalStack=0;resizeParent=1;resizeParentMax=0;resizeLast=0;collapsible=1;marginBottom=0;whiteSpace=wrap;html=1;" parent="1" vertex="1">
          <mxGeometry x="14" y="150" width="240" height="98" as="geometry" />
        </mxCell>
        <mxCell id="JnITb27zXawuO8oeRguL-13" value="&lt;div&gt;– _text:&amp;nbsp;&lt;span style=&quot;background-color: transparent; color: light-dark(rgb(0, 0, 0), rgb(255, 255, 255));&quot;&gt;IEnumerable&amp;lt;TextLine&amp;gt;&lt;/span&gt;&lt;/div&gt;+ Text: IEnumerable&amp;lt;TextLine&amp;gt; { get; set; }" style="text;strokeColor=none;fillColor=none;align=left;verticalAlign=top;spacingLeft=4;spacingRight=4;overflow=hidden;rotatable=0;points=[[0,0.5],[1,0.5]];portConstraint=eastwest;whiteSpace=wrap;html=1;" parent="JnITb27zXawuO8oeRguL-12" vertex="1">
          <mxGeometry y="26" width="240" height="44" as="geometry" />
        </mxCell>
        <mxCell id="JnITb27zXawuO8oeRguL-14" value="" style="line;strokeWidth=1;fillColor=none;align=left;verticalAlign=middle;spacingTop=-1;spacingLeft=3;spacingRight=3;rotatable=0;labelPosition=right;points=[];portConstraint=eastwest;strokeColor=inherit;" parent="JnITb27zXawuO8oeRguL-12" vertex="1">
          <mxGeometry y="70" width="240" height="2" as="geometry" />
        </mxCell>
        <mxCell id="JnITb27zXawuO8oeRguL-15" value="&amp;nbsp;" style="text;strokeColor=none;fillColor=none;align=left;verticalAlign=top;spacingLeft=4;spacingRight=4;overflow=hidden;rotatable=0;points=[[0,0.5],[1,0.5]];portConstraint=eastwest;whiteSpace=wrap;html=1;" parent="JnITb27zXawuO8oeRguL-12" vertex="1">
          <mxGeometry y="72" width="240" height="26" as="geometry" />
        </mxCell>
        <mxCell id="JnITb27zXawuO8oeRguL-16" value="TextLine" style="text;strokeColor=none;fillColor=none;html=1;fontSize=24;fontStyle=1;verticalAlign=middle;align=left;" parent="1" vertex="1">
          <mxGeometry x="294" y="20" width="240" height="40" as="geometry" />
        </mxCell>
        <UserObject label="&lt;span style=&quot;font-size: 14px;&quot;&gt;TextLine объединяет объекты TextRun в строку.&lt;/span&gt;" placeholders="1" name="Variable" id="JnITb27zXawuO8oeRguL-17">
          <mxCell style="text;html=1;strokeColor=none;fillColor=none;align=left;verticalAlign=top;whiteSpace=wrap;overflow=hidden;" parent="1" vertex="1">
            <mxGeometry x="294" y="60" width="240" height="90" as="geometry" />
          </mxCell>
        </UserObject>
        <mxCell id="JnITb27zXawuO8oeRguL-18" value="TextLine" style="swimlane;fontStyle=1;align=center;verticalAlign=top;childLayout=stackLayout;horizontal=1;startSize=26;horizontalStack=0;resizeParent=1;resizeParentMax=0;resizeLast=0;collapsible=1;marginBottom=0;whiteSpace=wrap;html=1;" parent="1" vertex="1">
          <mxGeometry x="294" y="150" width="240" height="98" as="geometry">
            <mxRectangle x="260" y="110" width="90" height="30" as="alternateBounds" />
          </mxGeometry>
        </mxCell>
        <mxCell id="JnITb27zXawuO8oeRguL-19" value="&lt;div&gt;– _text:&amp;nbsp;&lt;span style=&quot;background-color: transparent; color: light-dark(rgb(0, 0, 0), rgb(255, 255, 255));&quot;&gt;IEnumerable&amp;lt;TextRun&amp;gt;&lt;/span&gt;&lt;/div&gt;+ Text: IEnumerable&amp;lt;TextRun&amp;gt; { get; set; }" style="text;strokeColor=none;fillColor=none;align=left;verticalAlign=top;spacingLeft=4;spacingRight=4;overflow=hidden;rotatable=0;points=[[0,0.5],[1,0.5]];portConstraint=eastwest;whiteSpace=wrap;html=1;" parent="JnITb27zXawuO8oeRguL-18" vertex="1">
          <mxGeometry y="26" width="240" height="44" as="geometry" />
        </mxCell>
        <mxCell id="JnITb27zXawuO8oeRguL-20" value="" style="line;strokeWidth=1;fillColor=none;align=left;verticalAlign=middle;spacingTop=-1;spacingLeft=3;spacingRight=3;rotatable=0;labelPosition=right;points=[];portConstraint=eastwest;strokeColor=inherit;spacing=2;" parent="JnITb27zXawuO8oeRguL-18" vertex="1">
          <mxGeometry y="70" width="240" height="2" as="geometry" />
        </mxCell>
        <mxCell id="JnITb27zXawuO8oeRguL-21" value="&amp;nbsp;" style="text;strokeColor=none;fillColor=none;align=left;verticalAlign=top;spacingLeft=4;spacingRight=4;overflow=hidden;rotatable=0;points=[[0,0.5],[1,0.5]];portConstraint=eastwest;whiteSpace=wrap;html=1;" parent="JnITb27zXawuO8oeRguL-18" vertex="1">
          <mxGeometry y="72" width="240" height="26" as="geometry" />
        </mxCell>
        <mxCell id="JnITb27zXawuO8oeRguL-22" value="TextRun" style="text;strokeColor=none;fillColor=none;html=1;fontSize=24;fontStyle=1;verticalAlign=middle;align=left;" parent="1" vertex="1">
          <mxGeometry x="574" y="20" width="240" height="40" as="geometry" />
        </mxCell>
        <UserObject label="&lt;span style=&quot;font-size: 14px;&quot;&gt;TextRun — текстовая единица, позволяющая настроить содержащийся в ней текст.&lt;/span&gt;" placeholders="1" name="Variable" id="JnITb27zXawuO8oeRguL-23">
          <mxCell style="text;html=1;strokeColor=none;fillColor=none;align=left;verticalAlign=top;whiteSpace=wrap;overflow=hidden;" parent="1" vertex="1">
            <mxGeometry x="574" y="60" width="240" height="90" as="geometry" />
          </mxCell>
        </UserObject>
        <mxCell id="JnITb27zXawuO8oeRguL-24" value="TextRun" style="swimlane;fontStyle=1;align=center;verticalAlign=top;childLayout=stackLayout;horizontal=1;startSize=26;horizontalStack=0;resizeParent=1;resizeParentMax=0;resizeLast=0;collapsible=1;marginBottom=0;whiteSpace=wrap;html=1;" parent="1" vertex="1">
          <mxGeometry x="574" y="150" width="240" height="190" as="geometry">
            <mxRectangle x="500" y="110" width="80" height="30" as="alternateBounds" />
          </mxGeometry>
        </mxCell>
        <mxCell id="JnITb27zXawuO8oeRguL-25" value="&lt;div&gt;– _text: string&lt;/div&gt;+ Text: string { get; set; }&lt;div&gt;&lt;br&gt;&lt;/div&gt;&lt;div&gt;– _foreground: string&lt;/div&gt;&lt;div&gt;+ Foreground:&lt;span style=&quot;background-color: transparent; color: light-dark(rgb(0, 0, 0), rgb(255, 255, 255));&quot;&gt;&amp;nbsp;&lt;/span&gt;&lt;span style=&quot;background-color: transparent; color: light-dark(rgb(0, 0, 0), rgb(255, 255, 255));&quot;&gt;string { get; set; }&lt;/span&gt;&lt;/div&gt;&lt;div&gt;&lt;br&gt;&lt;/div&gt;&lt;div&gt;– _background: string&lt;/div&gt;&lt;div&gt;+ Background:&lt;span style=&quot;background-color: transparent; color: light-dark(rgb(0, 0, 0), rgb(255, 255, 255));&quot;&gt;&amp;nbsp;&lt;/span&gt;&lt;span style=&quot;background-color: transparent; color: light-dark(rgb(0, 0, 0), rgb(255, 255, 255));&quot;&gt;string { get; set; }&lt;/span&gt;&lt;/div&gt;" style="text;strokeColor=none;fillColor=none;align=left;verticalAlign=top;spacingLeft=4;spacingRight=4;overflow=hidden;rotatable=0;points=[[0,0.5],[1,0.5]];portConstraint=eastwest;whiteSpace=wrap;html=1;" parent="JnITb27zXawuO8oeRguL-24" vertex="1">
          <mxGeometry y="26" width="240" height="134" as="geometry" />
        </mxCell>
        <mxCell id="JnITb27zXawuO8oeRguL-26" value="" style="line;strokeWidth=1;fillColor=none;align=left;verticalAlign=middle;spacingTop=-1;spacingLeft=3;spacingRight=3;rotatable=0;labelPosition=right;points=[];portConstraint=eastwest;strokeColor=inherit;" parent="JnITb27zXawuO8oeRguL-24" vertex="1">
          <mxGeometry y="160" width="240" height="2" as="geometry" />
        </mxCell>
        <mxCell id="JnITb27zXawuO8oeRguL-27" value="&amp;nbsp;" style="text;strokeColor=none;fillColor=none;align=left;verticalAlign=top;spacingLeft=4;spacingRight=4;overflow=hidden;rotatable=0;points=[[0,0.5],[1,0.5]];portConstraint=eastwest;whiteSpace=wrap;html=1;" parent="JnITb27zXawuO8oeRguL-24" vertex="1">
          <mxGeometry y="162" width="240" height="28" as="geometry" />
        </mxCell>
      </root>
    </mxGraphModel>
  </diagram>
</mxfile>
